<svg data-v-423bf9ae="" xmlns="http://www.w3.org/2000/svg" viewBox="0 0 396 90" class="iconLeftSlogan"><!----><!----><!----><g data-v-423bf9ae="" id="cda40f4b-af8f-4b30-93fe-61f0f86befcf" fill="white" transform="matrix(4.946413803291662,0,0,4.946413803291662,93.43821868367556,-19.587798372888535)"><path d="M6.68 8.79L7.49 4.98L7.49 4.98Q6.92 5.29 6.27 6.14L6.27 6.14L6.27 6.14Q5.63 6.99 4.97 8.30L4.97 8.30L4.97 8.30Q5.47 8.40 5.90 8.53L5.90 8.53L5.90 8.53Q6.33 8.65 6.68 8.79L6.68 8.79ZM8.58 3.99L8.58 3.99L8.58 3.99Q8.88 3.99 9.17 4.04L9.17 4.04L9.17 4.04Q9.46 4.09 9.69 4.19L9.69 4.19L7.49 14.49L5.47 14.49L6.55 9.41L6.55 9.41Q6.06 9.18 5.63 9.07L5.63 9.07L5.63 9.07Q5.19 8.95 4.68 8.90L4.68 8.90L4.68 8.90Q3.88 10.64 3.37 12.43L3.37 12.43L3.37 12.43Q2.86 14.22 2.86 15.30L2.86 15.30L2.86 15.30Q2.86 15.55 2.91 15.74L2.91 15.74L2.91 15.74Q2.95 15.93 3.05 16.09L3.05 16.09L3.05 16.09Q1.99 16.09 1.58 15.72L1.58 15.72L1.58 15.72Q1.18 15.36 1.18 14.60L1.18 14.60L1.18 14.60Q1.18 13.66 1.74 12.10L1.74 12.10L1.74 12.10Q2.31 10.53 3.23 8.90L3.23 8.90L3.23 8.90Q2.52 8.95 2.12 9.13L2.12 9.13L2.12 9.13Q1.72 9.31 1.60 9.63L1.60 9.63L1.60 9.63Q1.65 9.63 1.72 9.78L1.72 9.78L1.72 9.78Q1.78 9.93 1.78 10.07L1.78 10.07L1.78 10.07Q1.78 10.30 1.55 10.46L1.55 10.46L1.55 10.46Q1.33 10.61 0.99 10.61L0.99 10.61L0.99 10.61Q0.60 10.61 0.36 10.39L0.36 10.39L0.36 10.39Q0.13 10.18 0.13 9.80L0.13 9.80L0.13 9.80Q0.13 9.07 0.95 8.57L0.95 8.57L0.95 8.57Q1.76 8.08 2.98 8.08L2.98 8.08L2.98 8.08Q3.12 8.08 3.30 8.09L3.30 8.09L3.30 8.09Q3.49 8.09 3.71 8.12L3.71 8.12L3.71 8.12Q4.94 6.17 6.22 5.08L6.22 5.08L6.22 5.08Q7.49 3.99 8.58 3.99ZM11.75 7.78L11.75 7.78L11.75 7.78Q12.31 6.52 13.05 5.86L13.05 5.86L13.05 5.86Q13.79 5.19 14.66 5.19L14.66 5.19L14.66 5.19Q14.85 5.19 15.04 5.22L15.04 5.22L15.04 5.22Q15.22 5.25 15.39 5.31L15.39 5.31L15.39 5.31Q14.49 5.85 13.71 7.97L13.71 7.97L13.71 7.97Q12.94 10.08 12.94 11.82L12.94 11.82L12.94 11.82Q12.94 12.08 12.94 12.20L12.94 12.20L12.94 12.20Q12.95 12.32 12.96 12.42L12.96 12.42L12.96 12.42Q13.22 12.35 13.43 12.32L13.43 12.32L13.43 12.32Q13.65 12.29 13.83 12.29L13.83 12.29L13.83 12.29Q14.15 12.29 14.43 12.38L14.43 12.38L14.43 12.38Q14.70 12.47 14.95 12.67L14.95 12.67L14.95 12.67Q15.68 11.75 16.18 10.15L16.18 10.15L16.18 10.15Q16.67 8.55 16.67 7.08L16.67 7.08L16.67 7.08Q16.67 5.68 16.27 5.16L16.27 5.16L16.27 5.16Q15.86 4.63 14.88 4.63L14.88 4.63L14.88 4.63Q13.16 4.63 12.01 5.65L12.01 5.65L12.01 5.65Q10.85 6.66 10.85 8.23L10.85 8.23L10.85 8.23Q10.85 8.43 10.87 8.57L10.87 8.57L10.87 8.57Q10.89 8.72 10.96 8.88L10.96 8.88L10.96 8.88Q10.98 8.93 10.98 8.95L10.98 8.95L10.98 8.95Q10.99 8.97 10.99 8.99L10.99 8.99L10.99 8.99Q10.28 8.99 9.93 8.70L9.93 8.70L9.93 8.70Q9.58 8.41 9.58 7.81L9.58 7.81L9.58 7.81Q9.58 7.03 10.13 6.27L10.13 6.27L10.13 6.27Q10.68 5.50 11.66 4.93L11.66 4.93L11.66 4.93Q12.45 4.48 13.36 4.23L13.36 4.23L13.36 4.23Q14.28 3.99 15.22 3.99L15.22 3.99L15.22 3.99Q16.87 3.99 17.70 4.89L17.70 4.89L17.70 4.89Q18.54 5.80 18.54 7.57L18.54 7.57L18.54 7.57Q18.54 9.37 17.81 11.11L17.81 11.11L17.81 11.11Q17.08 12.85 15.86 13.76L15.86 13.76L15.86 13.76Q16.34 14.42 16.73 14.66L16.73 14.66L16.73 14.66Q17.12 14.90 17.61 14.90L17.61 14.90L17.61 14.90Q17.65 14.90 17.70 14.89L17.70 14.89L17.70 14.89Q17.75 14.88 17.92 14.87L17.92 14.87L17.92 14.87Q17.68 15.50 17.35 15.79L17.35 15.79L17.35 15.79Q17.01 16.07 16.48 16.07L16.48 16.07L16.48 16.07Q15.81 16.07 15.39 15.72L15.39 15.72L15.39 15.72Q14.98 15.37 14.67 14.38L14.67 14.38L14.67 14.38Q14.36 14.48 14.04 14.53L14.04 14.53L14.04 14.53Q13.72 14.57 13.37 14.57L13.37 14.57L13.37 14.57Q12.14 14.57 11.50 13.86L11.50 13.86L11.50 13.86Q10.86 13.15 10.86 11.76L10.86 11.76L10.86 11.76Q10.86 10.86 11.10 9.78L11.10 9.78L11.10 9.78Q11.34 8.69 11.75 7.78ZM13.48 12.81L13.48 12.81L13.48 12.81Q13.38 12.81 13.29 12.82L13.29 12.82L13.29 12.82Q13.19 12.84 13.08 12.87L13.08 12.87L13.08 12.87Q13.17 13.16 13.34 13.30L13.34 13.30L13.34 13.30Q13.51 13.44 13.75 13.44L13.75 13.44L13.75 13.44Q13.89 13.44 14.03 13.40L14.03 13.40L14.03 13.40Q14.17 13.36 14.28 13.29L14.28 13.29L14.28 13.29Q14.14 13.05 13.94 12.93L13.94 12.93L13.94 12.93Q13.75 12.81 13.48 12.81ZM20.52 4.97L20.52 4.97L20.52 4.97Q21.24 4.51 22.06 4.25L22.06 4.25L22.06 4.25Q22.88 3.99 23.66 3.99L23.66 3.99L23.66 3.99Q23.76 3.99 23.88 4.00L23.88 4.00L23.88 4.00Q24.00 4.00 24.22 4.02L24.22 4.02L21.99 14.49L19.98 14.49L22.01 4.98L22.01 4.98Q21.06 5.38 20.55 6.16L20.55 6.16L20.55 6.16Q20.05 6.94 20.05 8.04L20.05 8.04L20.05 8.04Q20.05 8.30 20.08 8.50L20.08 8.50L20.08 8.50Q20.12 8.69 20.20 8.88L20.20 8.88L20.20 8.88Q20.23 8.93 20.24 8.95L20.24 8.95L20.24 8.95Q20.24 8.97 20.24 8.99L20.24 8.99L20.24 8.99Q19.46 8.99 19.10 8.66L19.10 8.66L19.10 8.66Q18.75 8.33 18.75 7.63L18.75 7.63L18.75 7.63Q18.75 6.93 19.21 6.23L19.21 6.23L19.21 6.23Q19.68 5.53 20.52 4.97ZM28.39 9.13L27.24 14.49L25.23 14.49L27.13 5.59L29.20 5.31L28.55 8.41L28.63 8.41L28.63 8.41Q29.41 8.41 30.03 7.70L30.03 7.70L30.03 7.70Q30.65 6.99 30.65 6.15L30.65 6.15L30.65 6.15Q30.65 5.45 30.16 5.04L30.16 5.04L30.16 5.04Q29.68 4.63 28.80 4.63L28.80 4.63L28.80 4.63Q27.33 4.63 26.31 5.57L26.31 5.57L26.31 5.57Q25.30 6.51 25.30 8.04L25.30 8.04L25.30 8.04Q25.30 8.30 25.33 8.50L25.33 8.50L25.33 8.50Q25.37 8.69 25.45 8.88L25.45 8.88L25.45 8.88Q25.48 8.93 25.49 8.95L25.49 8.95L25.49 8.95Q25.49 8.97 25.49 8.99L25.49 8.99L25.49 8.99Q24.74 8.99 24.37 8.67L24.37 8.67L24.37 8.67Q24.00 8.34 24.00 7.70L24.00 7.70L24.00 7.70Q24.00 6.94 24.48 6.22L24.48 6.22L24.48 6.22Q24.96 5.49 25.82 4.94L25.82 4.94L25.82 4.94Q26.52 4.48 27.36 4.23L27.36 4.23L27.36 4.23Q28.21 3.99 29.08 3.99L29.08 3.99L29.08 3.99Q30.45 3.99 31.25 4.61L31.25 4.61L31.25 4.61Q32.06 5.22 32.06 6.22L32.06 6.22L32.06 6.22Q32.06 6.87 31.68 7.48L31.68 7.48L31.68 7.48Q31.30 8.08 30.66 8.44L30.66 8.44L30.66 8.44Q31.46 8.60 31.88 9.19L31.88 9.19L31.88 9.19Q32.31 9.79 32.31 10.70L32.31 10.70L32.31 10.70Q32.31 11.35 32.12 12.08L32.12 12.08L32.12 12.08Q31.92 12.81 31.57 13.37L31.57 13.37L31.57 13.37Q31.15 14.04 30.56 14.38L30.56 14.38L30.56 14.38Q29.97 14.73 29.25 14.73L29.25 14.73L29.25 14.73Q28.59 14.73 28.22 14.46L28.22 14.46L28.22 14.46Q27.86 14.20 27.86 13.69L27.86 13.69L27.86 13.69Q27.86 13.52 27.90 13.32L27.90 13.32L27.90 13.32Q27.94 13.12 28.04 12.88L28.04 12.88L28.04 12.88Q28.31 13.15 28.52 13.27L28.52 13.27L28.52 13.27Q28.74 13.38 28.98 13.38L28.98 13.38L28.98 13.38Q29.61 13.38 29.99 12.66L29.99 12.66L29.99 12.66Q30.37 11.93 30.37 10.86L30.37 10.86L30.37 10.86Q30.37 9.98 30.03 9.53L30.03 9.53L30.03 9.53Q29.69 9.09 29.04 9.09L29.04 9.09L29.04 9.09Q28.94 9.09 28.75 9.10L28.75 9.10L28.75 9.10Q28.56 9.11 28.39 9.13L28.39 9.13ZM39.28 13.93L39.17 14.49L37.16 14.49L39.06 5.59L41.13 5.31L39.45 13.16L39.45 13.16Q39.65 13.30 39.84 13.37L39.84 13.37L39.84 13.37Q40.04 13.44 40.25 13.44L40.25 13.44L40.25 13.44Q41.38 13.44 42.16 11.57L42.16 11.57L42.16 11.57Q42.94 9.70 42.94 7.28L42.94 7.28L42.94 7.28Q42.94 5.96 42.42 5.30L42.42 5.30L42.42 5.30Q41.90 4.63 40.89 4.63L40.89 4.63L40.89 4.63Q39.26 4.63 38.24 5.56L38.24 5.56L38.24 5.56Q37.23 6.50 37.23 8.04L37.23 8.04L37.23 8.04Q37.23 8.30 37.26 8.50L37.26 8.50L37.26 8.50Q37.30 8.69 37.38 8.88L37.38 8.88L37.38 8.88Q37.41 8.93 37.42 8.95L37.42 8.95L37.42 8.95Q37.42 8.97 37.42 8.99L37.42 8.99L37.42 8.99Q36.67 8.99 36.30 8.67L36.30 8.67L36.30 8.67Q35.92 8.34 35.92 7.69L35.92 7.69L35.92 7.69Q35.92 6.92 36.42 6.18L36.42 6.18L36.42 6.18Q36.92 5.45 37.79 4.90L37.79 4.90L37.79 4.90Q38.50 4.47 39.36 4.23L39.36 4.23L39.36 4.23Q40.22 3.99 41.13 3.99L41.13 3.99L41.13 3.99Q42.92 3.99 43.90 5.06L43.90 5.06L43.90 5.06Q44.87 6.13 44.87 8.02L44.87 8.02L44.87 8.02Q44.87 9.04 44.63 10.09L44.63 10.09L44.63 10.09Q44.39 11.14 43.96 12.05L43.96 12.05L43.96 12.05Q43.39 13.29 42.60 13.98L42.60 13.98L42.60 13.98Q41.82 14.67 40.99 14.67L40.99 14.67L40.99 14.67Q40.57 14.67 40.15 14.48L40.15 14.48L40.15 14.48Q39.72 14.29 39.28 13.93L39.28 13.93ZM47.66 11.98L47.66 11.98L47.66 11.98Q47.66 12.66 48.00 13.03L48.00 13.03L48.00 13.03Q48.34 13.40 48.99 13.40L48.99 13.40L48.99 13.40Q49.73 13.40 50.48 12.99L50.48 12.99L50.48 12.99Q51.24 12.59 51.58 11.97L51.58 11.97L51.90 12.11L51.90 12.11Q51.38 13.30 50.24 14.02L50.24 14.02L50.24 14.02Q49.10 14.74 47.80 14.74L47.80 14.74L47.80 14.74Q46.59 14.74 45.91 14.07L45.91 14.07L45.91 14.07Q45.22 13.40 45.22 12.28L45.22 12.28L45.22 12.28Q45.22 11.06 45.96 9.99L45.96 9.99L45.96 9.99Q46.70 8.92 47.81 8.65L47.81 8.65L47.81 8.65Q47.39 8.36 47.17 7.92L47.17 7.92L47.17 7.92Q46.96 7.49 46.96 6.97L46.96 6.97L46.96 6.97Q46.96 5.80 47.86 4.88L47.86 4.88L47.86 4.88Q48.76 3.96 50.02 3.96L50.02 3.96L50.02 3.96Q50.92 3.96 51.47 4.44L51.47 4.44L51.47 4.44Q52.02 4.91 52.02 5.71L52.02 5.71L52.02 5.71Q52.02 6.33 51.72 6.75L51.72 6.75L51.72 6.75Q51.42 7.17 50.99 7.17L50.99 7.17L50.99 7.17Q50.79 7.17 50.63 7.07L50.63 7.07L50.63 7.07Q50.47 6.97 50.33 6.79L50.33 6.79L50.33 6.79Q50.58 6.71 50.76 6.34L50.76 6.34L50.76 6.34Q50.95 5.96 50.95 5.57L50.95 5.57L50.95 5.57Q50.95 5.21 50.74 5.00L50.74 5.00L50.74 5.00Q50.53 4.79 50.18 4.79L50.18 4.79L50.18 4.79Q49.59 4.79 49.17 5.38L49.17 5.38L49.17 5.38Q48.75 5.98 48.75 6.76L48.75 6.76L48.75 6.76Q48.75 7.46 49.12 7.96L49.12 7.96L49.12 7.96Q49.49 8.46 50.16 8.64L50.16 8.64L50.16 8.64Q49.13 8.88 48.39 9.89L48.39 9.89L48.39 9.89Q47.66 10.91 47.66 11.98ZM53.41 4.97L53.41 4.97L53.41 4.97Q54.12 4.51 54.94 4.25L54.94 4.25L54.94 4.25Q55.76 3.99 56.55 3.99L56.55 3.99L56.55 3.99Q56.64 3.99 56.76 4.00L56.76 4.00L56.76 4.00Q56.88 4.00 57.11 4.02L57.11 4.02L57.23 12.63L60.17 4.06L61.15 4.06L57.26 14.49L55.13 14.49L55.13 4.93L55.13 4.93Q54.04 5.26 53.49 6.05L53.49 6.05L53.49 6.05Q52.93 6.83 52.93 8.04L52.93 8.04L52.93 8.04Q52.93 8.30 52.97 8.50L52.97 8.50L52.97 8.50Q53.00 8.69 53.09 8.88L53.09 8.88L53.09 8.88Q53.12 8.93 53.12 8.95L53.12 8.95L53.12 8.95Q53.13 8.97 53.13 8.99L53.13 8.99L53.13 8.99Q52.35 8.99 51.99 8.66L51.99 8.66L51.99 8.66Q51.63 8.33 51.63 7.63L51.63 7.63L51.63 7.63Q51.63 6.93 52.10 6.23L52.10 6.23L52.10 6.23Q52.57 5.53 53.41 4.97Z"></path></g><!----><g data-v-423bf9ae="" id="62d3fd8d-d4d9-4b4d-869c-915967a48dc5" transform="matrix(2.8125,0,0,2.8125,-7.170000076293945,0)" stroke="none" fill="white"><path d="M2.83 18.247l26.34-9.124L2.83 0zM29.17 32V13.753L2.83 22.877z"></path></g><!----><g data-v-423bf9ae="" id="f8f5bf71-8b44-4bbe-8550-11942910f073" fill="white" transform="matrix(1.703570824572616,0,0,1.703570824572616,93.6042487177406,54.327110820813786)"><path d="M0.28 3.64L0.28 3.64L0.28 3.64Q0.28 3.51 0.40 3.49L0.40 3.49L0.40 3.49Q0.52 3.47 0.99 3.47L0.99 3.47L2.21 3.47L2.21 3.47Q2.56 3.47 3.50 3.44L3.50 3.44L3.50 3.44Q4.44 3.42 4.94 3.42L4.94 3.42L4.94 3.42Q5.91 3.42 6.87 3.71L6.87 3.71L6.87 3.71Q7.84 4.00 8.65 4.56L8.65 4.56L8.65 4.56Q9.46 5.11 9.97 6.00L9.97 6.00L9.97 6.00Q10.47 6.89 10.47 7.98L10.47 7.98L10.47 7.98Q10.47 8.96 10.34 9.68L10.34 9.68L10.34 9.68Q10.21 10.40 9.90 10.93L9.90 10.93L9.90 10.93Q9.59 11.45 9.28 11.78L9.28 11.78L9.28 11.78Q8.97 12.11 8.44 12.56L8.44 12.56L8.44 12.56Q8.02 12.89 7.22 13.19L7.22 13.19L7.22 13.19Q6.43 13.48 5.59 13.48L5.59 13.48L5.59 13.48Q5.50 13.48 4.16 13.45L4.16 13.45L4.16 13.45Q2.81 13.41 2.23 13.41L2.23 13.41L2.23 13.41Q1.74 13.41 1.32 13.45L1.32 13.45L1.32 13.45Q0.90 13.48 0.83 13.48L0.83 13.48L0.83 13.48Q0.49 13.48 0.49 13.30L0.49 13.30L0.49 13.30Q0.49 13.19 0.54 13.14L0.54 13.14L0.54 13.14Q0.59 13.09 0.75 13.05L0.75 13.05L0.75 13.05Q0.91 13.01 0.98 12.98L0.98 12.98L0.98 12.98Q1.20 12.88 1.39 12.61L1.39 12.61L1.39 12.61Q1.58 12.33 1.58 12.07L1.58 12.07L1.58 12.07Q1.58 11.28 1.59 10.07L1.59 10.07L1.59 10.07Q1.60 8.85 1.60 8.27L1.60 8.27L1.60 8.27Q1.60 7.77 1.59 6.70L1.59 6.70L1.59 6.70Q1.58 5.63 1.58 4.72L1.58 4.72L1.58 4.72Q1.58 4.48 1.35 4.23L1.35 4.23L1.35 4.23Q1.12 3.99 0.84 3.98L0.84 3.98L0.84 3.98Q0.64 3.96 0.55 3.95L0.55 3.95L0.55 3.95Q0.46 3.93 0.37 3.86L0.37 3.86L0.37 3.86Q0.28 3.78 0.28 3.64ZM2.76 11.47L2.76 11.47L2.76 11.47Q2.76 11.73 2.77 11.90L2.77 11.90L2.77 11.90Q2.77 12.07 2.82 12.21L2.82 12.21L2.82 12.21Q2.87 12.35 2.90 12.40L2.90 12.40L2.90 12.40Q2.93 12.46 3.07 12.53L3.07 12.53L3.07 12.53Q3.21 12.60 3.28 12.62L3.28 12.62L3.28 12.62Q3.36 12.64 3.61 12.71L3.61 12.71L3.61 12.71Q3.86 12.78 4.03 12.82L4.03 12.82L4.03 12.82Q4.52 12.96 5.05 12.96L5.05 12.96L5.33 12.96L5.33 12.96Q6.29 12.96 6.96 12.69L6.96 12.69L6.96 12.69Q7.63 12.42 8.25 11.83L8.25 11.83L8.25 11.83Q9.28 10.84 9.28 8.61L9.28 8.61L9.28 8.61Q9.28 7.49 8.84 6.58L8.84 6.58L8.84 6.58Q8.40 5.67 7.69 5.13L7.69 5.13L7.69 5.13Q6.97 4.59 6.15 4.30L6.15 4.30L6.15 4.30Q5.32 4.02 4.48 4.02L4.48 4.02L4.48 4.02Q4.10 4.02 3.93 4.02L3.93 4.02L3.93 4.02Q3.75 4.02 3.52 4.05L3.52 4.05L3.52 4.05Q3.29 4.09 3.21 4.11L3.21 4.11L3.21 4.11Q3.14 4.13 3.02 4.25L3.02 4.25L3.02 4.25Q2.91 4.37 2.89 4.45L2.89 4.45L2.89 4.45Q2.87 4.54 2.83 4.78L2.83 4.78L2.83 4.78Q2.80 5.03 2.80 5.21L2.80 5.21L2.80 5.21Q2.80 5.39 2.80 5.80L2.80 5.80L2.80 5.80Q2.80 6.10 2.79 7.24L2.79 7.24L2.79 7.24Q2.77 8.39 2.77 8.48L2.77 8.48L2.77 8.48Q2.77 9.32 2.77 10.30L2.77 10.30L2.77 10.30Q2.76 11.28 2.76 11.47ZM18.37 3.65L18.37 3.65L18.37 3.65Q18.37 3.46 18.76 3.46L18.76 3.46L18.76 3.46Q18.82 3.46 18.94 3.47L18.94 3.47L18.94 3.47Q19.07 3.49 19.14 3.49L19.14 3.49L19.14 3.49Q19.18 3.49 20.45 3.52L20.45 3.52L20.45 3.52Q21.73 3.56 22.55 3.56L22.55 3.56L22.55 3.56Q22.85 3.56 24.00 3.53L24.00 3.53L24.00 3.53Q25.16 3.50 25.35 3.50L25.35 3.50L25.35 3.50Q25.62 3.50 25.62 3.82L25.62 3.82L25.62 3.82Q25.62 3.91 25.54 4.38L25.54 4.38L25.54 4.38Q25.45 4.84 25.45 5.25L25.45 5.25L25.45 5.25Q25.45 5.38 25.38 5.47L25.38 5.47L25.38 5.47Q25.31 5.56 25.23 5.56L25.23 5.56L25.23 5.56Q25.02 5.56 25.02 5.26L25.02 5.26L25.02 5.26Q25.02 4.89 24.78 4.58L24.78 4.58L24.78 4.58Q24.54 4.27 24.19 4.26L24.19 4.26L24.19 4.26Q22.93 4.16 22.26 4.16L22.26 4.16L21.90 4.16L21.90 4.16Q21.17 4.16 21.05 4.26L21.05 4.26L21.05 4.26Q20.93 4.37 20.90 5.01L20.90 5.01L20.90 5.01Q20.85 6.02 20.85 7.35L20.85 7.35L20.85 7.35Q20.85 8.05 21.11 8.06L21.11 8.06L21.46 8.06L22.05 8.06L22.48 8.06L22.48 8.06Q23.32 8.06 23.60 8.01L23.60 8.01L23.60 8.01Q23.88 7.95 24.11 7.80L24.11 7.80L24.11 7.80Q24.37 7.62 24.43 7.28L24.43 7.28L24.43 7.28Q24.47 7.04 24.63 7.04L24.63 7.04L24.63 7.04Q24.75 7.04 24.78 7.08L24.78 7.08L24.78 7.08Q24.81 7.13 24.81 7.27L24.81 7.27L24.81 7.27Q24.81 7.36 24.75 7.91L24.75 7.91L24.75 7.91Q24.70 8.46 24.70 8.74L24.70 8.74L24.70 8.74Q24.70 9.00 24.72 9.24L24.72 9.24L24.72 9.24Q24.74 9.48 24.74 9.59L24.74 9.59L24.74 9.59Q24.74 9.94 24.64 9.94L24.64 9.94L24.64 9.94Q24.43 9.94 24.33 9.60L24.33 9.60L24.33 9.60Q24.14 9.02 23.98 8.92L23.98 8.92L23.98 8.92Q23.69 8.72 22.64 8.72L22.64 8.72L22.64 8.72Q22.22 8.72 21.96 8.72L21.96 8.72L21.96 8.72Q21.70 8.72 21.62 8.71L21.62 8.71L21.62 8.71Q21.55 8.71 21.50 8.71L21.50 8.71L21.50 8.71Q21.45 8.71 21.41 8.71L21.41 8.71L21.41 8.71Q20.83 8.71 20.83 8.97L20.83 8.97L20.83 8.97Q20.83 9.38 20.82 9.99L20.82 9.99L20.82 9.99Q20.80 10.60 20.80 10.99L20.80 10.99L20.80 11.55L20.80 11.55Q20.80 12.56 21.14 12.66L21.14 12.66L21.14 12.66Q21.49 12.77 21.74 12.77L21.74 12.77L21.74 12.77Q22.79 12.77 23.58 12.67L23.58 12.67L23.58 12.67Q24.37 12.57 24.77 12.42L24.77 12.42L24.77 12.42Q25.17 12.28 25.44 12.10L25.44 12.10L25.44 12.10Q25.70 11.93 25.78 11.78L25.78 11.78L25.78 11.78Q25.86 11.63 25.94 11.54L25.94 11.54L25.94 11.54Q26.01 11.44 26.10 11.44L26.10 11.44L26.10 11.44Q26.26 11.44 26.26 11.68L26.26 11.68L26.26 11.68Q26.26 12.28 25.66 12.89L25.66 12.89L25.66 12.89Q25.06 13.51 24.61 13.51L24.61 13.51L24.61 13.51Q23.60 13.51 22.34 13.44L22.34 13.44L22.34 13.44Q21.07 13.37 20.76 13.37L20.76 13.37L20.76 13.37Q20.37 13.37 19.78 13.43L19.78 13.43L19.78 13.43Q19.19 13.50 18.86 13.50L18.86 13.50L18.86 13.50Q18.56 13.50 18.56 13.36L18.56 13.36L18.56 13.36Q18.56 13.23 18.56 13.19L18.56 13.19L18.56 13.19Q18.56 13.15 18.61 13.12L18.61 13.12L18.61 13.12Q18.65 13.09 18.70 13.08L18.70 13.08L18.70 13.08Q18.75 13.08 18.88 13.03L18.88 13.03L18.88 13.03Q19.01 12.99 19.17 12.92L19.17 12.92L19.17 12.92Q19.50 12.75 19.61 12.26L19.61 12.26L19.61 12.26Q19.71 11.77 19.71 10.21L19.71 10.21L19.71 8.47L19.71 8.47Q19.71 8.09 19.73 7.29L19.73 7.29L19.73 7.29Q19.75 6.50 19.75 6.05L19.75 6.05L19.75 6.05Q19.75 5.67 19.73 4.77L19.73 4.77L19.73 4.77Q19.71 4.37 19.38 4.14L19.38 4.14L19.38 4.14Q19.04 3.92 18.59 3.91L18.59 3.91L18.59 3.91Q18.37 3.91 18.37 3.65ZM33.82 3.70L33.82 3.70L33.82 3.70Q33.82 3.50 34.22 3.50L34.22 3.50L34.22 3.50Q34.29 3.50 34.75 3.53L34.75 3.53L34.75 3.53Q35.22 3.56 35.76 3.56L35.76 3.56L35.76 3.56Q35.88 3.56 36.20 3.54L36.20 3.54L36.20 3.54Q36.51 3.53 36.67 3.53L36.67 3.53L36.67 3.53Q36.99 3.53 37.06 3.56L37.06 3.56L37.06 3.56Q37.13 3.58 37.13 3.68L37.13 3.68L37.13 3.68Q37.13 3.77 36.99 3.84L36.99 3.84L36.99 3.84Q36.85 3.91 36.70 4.02L36.70 4.02L36.70 4.02Q36.55 4.14 36.55 4.34L36.55 4.34L36.55 4.34Q36.55 4.52 36.60 4.71L36.60 4.71L36.60 4.71Q36.65 4.90 36.82 5.29L36.82 5.29L36.82 5.29Q36.99 5.68 37.16 6.08L37.16 6.08L37.16 6.08Q37.34 6.47 37.74 7.34L37.74 7.34L37.74 7.34Q38.14 8.22 38.51 9.07L38.51 9.07L38.51 9.07Q39.69 11.77 39.91 11.77L39.91 11.77L39.91 11.77Q39.98 11.77 40.72 10.08L40.72 10.08L40.72 10.08Q41.45 8.39 42.17 6.54L42.17 6.54L42.17 6.54Q42.88 4.69 42.88 4.35L42.88 4.35L42.88 4.35Q42.88 4.13 42.72 4.01L42.72 4.01L42.72 4.01Q42.56 3.89 42.38 3.87L42.38 3.87L42.38 3.87Q42.20 3.85 42.03 3.80L42.03 3.80L42.03 3.80Q41.87 3.75 41.87 3.64L41.87 3.64L41.87 3.64Q41.87 3.54 41.92 3.52L41.92 3.52L41.92 3.52Q41.97 3.50 42.17 3.50L42.17 3.50L42.17 3.50Q42.21 3.50 42.49 3.51L42.49 3.51L42.49 3.51Q42.77 3.51 43.05 3.51L43.05 3.51L43.05 3.51Q43.30 3.51 43.62 3.50L43.62 3.50L43.62 3.50Q43.93 3.49 44.30 3.49L44.30 3.49L44.30 3.49Q44.56 3.49 44.56 3.68L44.56 3.68L44.56 3.68Q44.56 3.78 44.47 3.85L44.47 3.85L44.47 3.85Q44.38 3.92 44.25 3.98L44.25 3.98L44.25 3.98Q44.13 4.03 43.96 4.21L43.96 4.21L43.96 4.21Q43.79 4.40 43.67 4.69L43.67 4.69L40.54 11.80L40.54 11.80Q40.21 12.56 39.89 13.34L39.89 13.34L39.89 13.34Q39.73 13.72 39.69 13.79L39.69 13.79L39.69 13.79Q39.65 13.86 39.58 13.86L39.58 13.86L39.58 13.86Q39.33 13.86 38.95 12.89L38.95 12.89L38.95 12.89Q38.58 11.98 37.51 9.65L37.51 9.65L37.51 9.65Q36.97 8.48 36.54 7.50L36.54 7.50L36.54 7.50Q36.11 6.52 35.92 6.06L35.92 6.06L35.92 6.06Q35.73 5.60 35.57 5.24L35.57 5.24L35.57 5.24Q35.41 4.87 35.32 4.72L35.32 4.72L35.32 4.72Q35.24 4.56 35.13 4.44L35.13 4.44L35.13 4.44Q34.89 4.17 34.63 4.06L34.63 4.06L34.63 4.06Q34.37 3.95 34.21 3.96L34.21 3.96L34.21 3.96Q34.05 3.96 33.94 3.91L33.94 3.91L33.94 3.91Q33.82 3.86 33.82 3.70ZM52.12 3.65L52.12 3.65L52.12 3.65Q52.12 3.46 52.51 3.46L52.51 3.46L52.51 3.46Q52.57 3.46 52.70 3.47L52.70 3.47L52.70 3.47Q52.82 3.49 52.89 3.49L52.89 3.49L52.89 3.49Q52.93 3.49 54.21 3.52L54.21 3.52L54.21 3.52Q55.48 3.56 56.31 3.56L56.31 3.56L56.31 3.56Q56.60 3.56 57.76 3.53L57.76 3.53L57.76 3.53Q58.91 3.50 59.11 3.50L59.11 3.50L59.11 3.50Q59.37 3.50 59.37 3.82L59.37 3.82L59.37 3.82Q59.37 3.91 59.29 4.38L59.29 4.38L59.29 4.38Q59.21 4.84 59.21 5.25L59.21 5.25L59.21 5.25Q59.21 5.38 59.14 5.47L59.14 5.47L59.14 5.47Q59.07 5.56 58.98 5.56L58.98 5.56L58.98 5.56Q58.77 5.56 58.77 5.26L58.77 5.26L58.77 5.26Q58.77 4.89 58.53 4.58L58.53 4.58L58.53 4.58Q58.30 4.27 57.95 4.26L57.95 4.26L57.95 4.26Q56.69 4.16 56.01 4.16L56.01 4.16L55.65 4.16L55.65 4.16Q54.92 4.16 54.80 4.26L54.80 4.26L54.80 4.26Q54.68 4.37 54.66 5.01L54.66 5.01L54.66 5.01Q54.60 6.02 54.60 7.35L54.60 7.35L54.60 7.35Q54.60 8.05 54.87 8.06L54.87 8.06L55.22 8.06L55.80 8.06L56.24 8.06L56.24 8.06Q57.08 8.06 57.36 8.01L57.36 8.01L57.36 8.01Q57.64 7.95 57.86 7.80L57.86 7.80L57.86 7.80Q58.13 7.62 58.18 7.28L58.18 7.28L58.18 7.28Q58.23 7.04 58.38 7.04L58.38 7.04L58.38 7.04Q58.51 7.04 58.53 7.08L58.53 7.08L58.53 7.08Q58.56 7.13 58.56 7.27L58.56 7.27L58.56 7.27Q58.56 7.36 58.51 7.91L58.51 7.91L58.51 7.91Q58.45 8.46 58.45 8.74L58.45 8.74L58.45 8.74Q58.45 9.00 58.47 9.24L58.47 9.24L58.47 9.24Q58.49 9.48 58.49 9.59L58.49 9.59L58.49 9.59Q58.49 9.94 58.39 9.94L58.39 9.94L58.39 9.94Q58.18 9.94 58.09 9.60L58.09 9.60L58.09 9.60Q57.89 9.02 57.74 8.92L57.74 8.92L57.74 8.92Q57.44 8.72 56.39 8.72L56.39 8.72L56.39 8.72Q55.97 8.72 55.71 8.72L55.71 8.72L55.71 8.72Q55.45 8.72 55.38 8.71L55.38 8.71L55.38 8.71Q55.30 8.71 55.25 8.71L55.25 8.71L55.25 8.71Q55.20 8.71 55.16 8.71L55.16 8.71L55.16 8.71Q54.59 8.71 54.59 8.97L54.59 8.97L54.59 8.97Q54.59 9.38 54.57 9.99L54.57 9.99L54.57 9.99Q54.56 10.60 54.56 10.99L54.56 10.99L54.56 11.55L54.56 11.55Q54.56 12.56 54.89 12.66L54.89 12.66L54.89 12.66Q55.24 12.77 55.50 12.77L55.50 12.77L55.50 12.77Q56.55 12.77 57.34 12.67L57.34 12.67L57.34 12.67Q58.13 12.57 58.53 12.42L58.53 12.42L58.53 12.42Q58.93 12.28 59.19 12.10L59.19 12.10L59.19 12.10Q59.46 11.93 59.53 11.78L59.53 11.78L59.53 11.78Q59.61 11.63 59.69 11.54L59.69 11.54L59.69 11.54Q59.77 11.44 59.85 11.44L59.85 11.44L59.85 11.44Q60.02 11.44 60.02 11.68L60.02 11.68L60.02 11.68Q60.02 12.28 59.42 12.89L59.42 12.89L59.42 12.89Q58.81 13.51 58.37 13.51L58.37 13.51L58.37 13.51Q57.36 13.51 56.09 13.44L56.09 13.44L56.09 13.44Q54.82 13.37 54.52 13.37L54.52 13.37L54.52 13.37Q54.12 13.37 53.54 13.43L53.54 13.43L53.54 13.43Q52.95 13.50 52.61 13.50L52.61 13.50L52.61 13.50Q52.32 13.50 52.32 13.36L52.32 13.36L52.32 13.36Q52.32 13.23 52.32 13.19L52.32 13.19L52.32 13.19Q52.32 13.15 52.36 13.12L52.36 13.12L52.36 13.12Q52.40 13.09 52.45 13.08L52.45 13.08L52.45 13.08Q52.50 13.08 52.63 13.03L52.63 13.03L52.63 13.03Q52.77 12.99 52.92 12.92L52.92 12.92L52.92 12.92Q53.26 12.75 53.36 12.26L53.36 12.26L53.36 12.26Q53.47 11.77 53.47 10.21L53.47 10.21L53.47 8.47L53.47 8.47Q53.47 8.09 53.49 7.29L53.49 7.29L53.49 7.29Q53.51 6.50 53.51 6.05L53.51 6.05L53.51 6.05Q53.51 5.67 53.48 4.77L53.48 4.77L53.48 4.77Q53.47 4.37 53.13 4.14L53.13 4.14L53.13 4.14Q52.79 3.92 52.35 3.91L52.35 3.91L52.35 3.91Q52.12 3.91 52.12 3.65ZM67.58 3.71L67.58 3.71L67.58 3.71Q67.58 3.46 67.96 3.46L67.96 3.46L67.96 3.46Q68.01 3.46 68.14 3.47L68.14 3.47L68.14 3.47Q68.26 3.49 68.33 3.49L68.33 3.49L68.33 3.49Q68.47 3.49 68.86 3.51L68.86 3.51L68.86 3.51Q69.24 3.54 69.55 3.54L69.55 3.54L69.55 3.54Q69.99 3.54 70.48 3.51L70.48 3.51L70.48 3.51Q70.97 3.49 71.02 3.49L71.02 3.49L71.02 3.49Q71.26 3.49 71.26 3.63L71.26 3.63L71.26 3.63Q71.26 3.82 71.09 3.88L71.09 3.88L71.09 3.88Q70.92 3.95 70.72 3.97L70.72 3.97L70.72 3.97Q70.52 3.99 70.33 4.28L70.33 4.28L70.33 4.28Q70.14 4.56 70.11 5.14L70.11 5.14L70.11 5.14Q70.08 5.68 70.04 8.19L70.04 8.19L70.04 8.19Q70 10.70 70 10.99L70 10.99L70 11.55L70 11.55Q70 12.56 70.34 12.66L70.34 12.66L70.34 12.66Q70.69 12.77 70.94 12.77L70.94 12.77L70.94 12.77Q71.99 12.77 72.78 12.67L72.78 12.67L72.78 12.67Q73.57 12.57 73.97 12.42L73.97 12.42L73.97 12.42Q74.37 12.28 74.63 12.10L74.63 12.10L74.63 12.10Q74.90 11.93 74.98 11.78L74.98 11.78L74.98 11.78Q75.05 11.63 75.13 11.54L75.13 11.54L75.13 11.54Q75.21 11.44 75.29 11.44L75.29 11.44L75.29 11.44Q75.46 11.44 75.46 11.68L75.46 11.68L75.46 11.68Q75.46 12.28 74.86 12.89L74.86 12.89L74.86 12.89Q74.26 13.51 73.81 13.51L73.81 13.51L73.81 13.51Q72.80 13.51 71.53 13.44L71.53 13.44L71.53 13.44Q70.27 13.37 69.96 13.37L69.96 13.37L69.96 13.37Q69.57 13.37 69.06 13.43L69.06 13.43L69.06 13.43Q68.54 13.48 68.21 13.48L68.21 13.48L68.21 13.48Q67.80 13.48 67.80 13.31L67.80 13.31L67.80 13.31Q67.80 13.22 67.88 13.15L67.88 13.15L67.88 13.15Q67.96 13.09 68.03 13.09L68.03 13.09L68.03 13.09Q68.24 13.09 68.43 12.95L68.43 12.95L68.43 12.95Q68.68 12.75 68.80 12.23L68.80 12.23L68.80 12.23Q68.91 11.70 68.91 10.21L68.91 10.21L68.91 8.47L68.91 8.47Q68.91 8.09 68.93 7.29L68.93 7.29L68.93 7.29Q68.95 6.50 68.95 6.05L68.95 6.05L68.95 6.05Q68.95 5.67 68.92 4.77L68.92 4.77L68.92 4.77Q68.91 4.37 68.57 4.14L68.57 4.14L68.57 4.14Q68.24 3.92 67.79 3.91L67.79 3.91L67.79 3.91Q67.65 3.91 67.61 3.86L67.61 3.86L67.61 3.86Q67.58 3.81 67.58 3.71ZM83.36 8.69L83.36 8.69L83.36 8.69Q83.36 6.34 84.77 4.84L84.77 4.84L84.77 4.84Q86.18 3.33 88.77 3.33L88.77 3.33L88.77 3.33Q89.98 3.33 90.94 3.68L90.94 3.68L90.94 3.68Q91.91 4.03 92.47 4.54L92.47 4.54L92.47 4.54Q93.03 5.05 93.41 5.71L93.41 5.71L93.41 5.71Q93.79 6.37 93.93 6.92L93.93 6.92L93.93 6.92Q94.07 7.48 94.07 7.95L94.07 7.95L94.07 7.95Q94.07 9.86 93.32 11.16L93.32 11.16L93.32 11.16Q92.58 12.47 91.37 13.07L91.37 13.07L91.37 13.07Q90.16 13.66 88.58 13.66L88.58 13.66L88.58 13.66Q86.91 13.66 85.70 12.94L85.70 12.94L85.70 12.94Q84.49 12.21 83.92 11.10L83.92 11.10L83.92 11.10Q83.36 10.00 83.36 8.69ZM84.59 7.98L84.59 7.98L84.59 7.98Q84.59 8.54 84.74 9.19L84.74 9.19L84.74 9.19Q84.90 9.84 85.25 10.54L85.25 10.54L85.25 10.54Q85.60 11.23 86.09 11.78L86.09 11.78L86.09 11.78Q86.59 12.33 87.35 12.69L87.35 12.69L87.35 12.69Q88.12 13.05 89.03 13.05L89.03 13.05L89.03 13.05Q89.50 13.05 90.03 12.90L90.03 12.90L90.03 12.90Q90.55 12.75 91.07 12.45L91.07 12.45L91.07 12.45Q91.59 12.14 91.99 11.70L91.99 11.70L91.99 11.70Q92.40 11.26 92.66 10.62L92.66 10.62L92.66 10.62Q92.92 9.98 92.92 9.24L92.92 9.24L92.92 9.24Q92.92 6.71 91.59 5.30L91.59 5.30L91.59 5.30Q90.26 3.89 88.30 3.89L88.30 3.89L88.30 3.89Q86.76 3.89 85.67 4.93L85.67 4.93L85.67 4.93Q84.59 5.96 84.59 7.98ZM101.96 3.72L101.96 3.72L101.96 3.72Q101.96 3.50 102.28 3.50L102.28 3.50L102.28 3.50Q102.33 3.50 102.44 3.49L102.44 3.49L102.44 3.49Q102.55 3.49 102.80 3.49L102.80 3.49L102.80 3.49Q102.87 3.49 103.19 3.51L103.19 3.51L103.19 3.51Q103.50 3.53 103.64 3.53L103.64 3.53L103.64 3.53Q103.95 3.53 104.83 3.51L104.83 3.51L104.83 3.51Q105.71 3.49 105.95 3.49L105.95 3.49L105.95 3.49Q107.27 3.49 108.22 4.15L108.22 4.15L108.22 4.15Q109.17 4.82 109.17 6.06L109.17 6.06L109.17 6.06Q109.17 6.75 108.92 7.29L108.92 7.29L108.92 7.29Q108.67 7.83 108.31 8.13L108.31 8.13L108.31 8.13Q107.95 8.44 107.51 8.64L107.51 8.64L107.51 8.64Q107.07 8.85 106.73 8.91L106.73 8.91L106.73 8.91Q106.39 8.97 106.12 8.97L106.12 8.97L106.12 8.97Q105.67 8.97 105.21 8.87L105.21 8.87L105.21 8.87Q104.75 8.76 104.75 8.65L104.75 8.65L104.75 8.65Q104.75 8.44 104.93 8.44L104.93 8.44L104.93 8.44Q105.00 8.44 105.22 8.50L105.22 8.50L105.22 8.50Q105.43 8.55 105.64 8.55L105.64 8.55L105.64 8.55Q105.97 8.55 106.33 8.46L106.33 8.46L106.33 8.46Q106.69 8.37 107.09 8.17L107.09 8.17L107.09 8.17Q107.48 7.97 107.73 7.55L107.73 7.55L107.73 7.55Q107.98 7.14 107.98 6.59L107.98 6.59L107.98 6.59Q107.98 5.66 107.23 4.85L107.23 4.85L107.23 4.85Q106.47 4.05 105.14 4.05L105.14 4.05L105.14 4.05Q104.71 4.05 104.55 4.30L104.55 4.30L104.55 4.30Q104.40 4.56 104.40 5.47L104.40 5.47L104.40 5.47Q104.40 8.39 104.38 8.80L104.38 8.80L104.38 8.80Q104.37 9.21 104.37 11.26L104.37 11.26L104.37 11.26Q104.37 12.49 104.94 12.87L104.94 12.87L104.94 12.87Q105.10 12.96 105.33 12.99L105.33 12.99L105.33 12.99Q105.56 13.02 105.71 13.01L105.71 13.01L105.71 13.01Q105.87 13.01 105.99 13.07L105.99 13.07L105.99 13.07Q106.11 13.13 106.11 13.30L106.11 13.30L106.11 13.30Q106.11 13.54 105.78 13.54L105.78 13.54L105.78 13.54Q105.46 13.54 104.65 13.50L104.65 13.50L104.65 13.50Q103.84 13.47 103.78 13.47L103.78 13.47L103.78 13.47Q103.64 13.47 103.23 13.50L103.23 13.50L103.23 13.50Q102.82 13.52 102.48 13.52L102.48 13.52L102.48 13.52Q102.05 13.52 102.05 13.37L102.05 13.37L102.05 13.37Q102.05 13.29 102.07 13.23L102.07 13.23L102.07 13.23Q102.09 13.17 102.11 13.14L102.11 13.14L102.11 13.14Q102.13 13.10 102.20 13.08L102.20 13.08L102.20 13.08Q102.27 13.05 102.30 13.03L102.30 13.03L102.30 13.03Q102.33 13.02 102.43 13.00L102.43 13.00L102.43 13.00Q102.54 12.98 102.58 12.96L102.58 12.96L102.58 12.96Q102.61 12.95 102.66 12.94L102.66 12.94L102.66 12.94Q102.72 12.94 102.74 12.93L102.74 12.93L102.74 12.93Q102.76 12.92 102.81 12.89L102.81 12.89L102.81 12.89Q102.86 12.85 102.89 12.79L102.89 12.79L102.89 12.79Q102.91 12.73 102.96 12.62L102.96 12.62L102.96 12.62Q103.01 12.52 103.07 12.35L103.07 12.35L103.07 12.35Q103.17 12.08 103.22 10.25L103.22 10.25L103.22 10.25Q103.28 8.41 103.28 7.41L103.28 7.41L103.28 7.41Q103.28 6.54 103.27 5.80L103.27 5.80L103.27 5.80Q103.26 5.07 103.26 5.03L103.26 5.03L103.26 5.03Q103.26 4.65 103.03 4.28L103.03 4.28L103.03 4.28Q102.79 3.91 102.24 3.91L102.24 3.91L102.24 3.91Q101.96 3.91 101.96 3.72ZM116.86 3.65L116.86 3.65L116.86 3.65Q116.86 3.46 117.25 3.46L117.25 3.46L117.25 3.46Q117.31 3.46 117.43 3.47L117.43 3.47L117.43 3.47Q117.56 3.49 117.63 3.49L117.63 3.49L117.63 3.49Q117.67 3.49 118.94 3.52L118.94 3.52L118.94 3.52Q120.22 3.56 121.04 3.56L121.04 3.56L121.04 3.56Q121.34 3.56 122.49 3.53L122.49 3.53L122.49 3.53Q123.65 3.50 123.84 3.50L123.84 3.50L123.84 3.50Q124.11 3.50 124.11 3.82L124.11 3.82L124.11 3.82Q124.11 3.91 124.03 4.38L124.03 4.38L124.03 4.38Q123.94 4.84 123.94 5.25L123.94 5.25L123.94 5.25Q123.94 5.38 123.87 5.47L123.87 5.47L123.87 5.47Q123.80 5.56 123.72 5.56L123.72 5.56L123.72 5.56Q123.51 5.56 123.51 5.26L123.51 5.26L123.51 5.26Q123.51 4.89 123.27 4.58L123.27 4.58L123.27 4.58Q123.03 4.27 122.68 4.26L122.68 4.26L122.68 4.26Q121.42 4.16 120.75 4.16L120.75 4.16L120.39 4.16L120.39 4.16Q119.66 4.16 119.54 4.26L119.54 4.26L119.54 4.26Q119.42 4.37 119.39 5.01L119.39 5.01L119.39 5.01Q119.34 6.02 119.34 7.35L119.34 7.35L119.34 7.35Q119.34 8.05 119.60 8.06L119.60 8.06L119.95 8.06L120.54 8.06L120.97 8.06L120.97 8.06Q121.81 8.06 122.09 8.01L122.09 8.01L122.09 8.01Q122.37 7.95 122.60 7.80L122.60 7.80L122.60 7.80Q122.86 7.62 122.92 7.28L122.92 7.28L122.92 7.28Q122.96 7.04 123.12 7.04L123.12 7.04L123.12 7.04Q123.24 7.04 123.27 7.08L123.27 7.08L123.27 7.08Q123.30 7.13 123.30 7.27L123.30 7.27L123.30 7.27Q123.30 7.36 123.24 7.91L123.24 7.91L123.24 7.91Q123.19 8.46 123.19 8.74L123.19 8.74L123.19 8.74Q123.19 9.00 123.21 9.24L123.21 9.24L123.21 9.24Q123.23 9.48 123.23 9.59L123.23 9.59L123.23 9.59Q123.23 9.94 123.13 9.94L123.13 9.94L123.13 9.94Q122.92 9.94 122.82 9.60L122.82 9.60L122.82 9.60Q122.63 9.02 122.47 8.92L122.47 8.92L122.47 8.92Q122.18 8.72 121.13 8.72L121.13 8.72L121.13 8.72Q120.71 8.72 120.45 8.72L120.45 8.72L120.45 8.72Q120.19 8.72 120.11 8.71L120.11 8.71L120.11 8.71Q120.04 8.71 119.99 8.71L119.99 8.71L119.99 8.71Q119.94 8.71 119.90 8.71L119.90 8.71L119.90 8.71Q119.32 8.71 119.32 8.97L119.32 8.97L119.32 8.97Q119.32 9.38 119.31 9.99L119.31 9.99L119.31 9.99Q119.29 10.60 119.29 10.99L119.29 10.99L119.29 11.55L119.29 11.55Q119.29 12.56 119.63 12.66L119.63 12.66L119.63 12.66Q119.98 12.77 120.23 12.77L120.23 12.77L120.23 12.77Q121.28 12.77 122.07 12.67L122.07 12.67L122.07 12.67Q122.86 12.57 123.26 12.42L123.26 12.42L123.26 12.42Q123.66 12.28 123.93 12.10L123.93 12.10L123.93 12.10Q124.19 11.93 124.27 11.78L124.27 11.78L124.27 11.78Q124.35 11.63 124.43 11.54L124.43 11.54L124.43 11.54Q124.50 11.44 124.59 11.44L124.59 11.44L124.59 11.44Q124.75 11.44 124.75 11.68L124.75 11.68L124.75 11.68Q124.75 12.28 124.15 12.89L124.15 12.89L124.15 12.89Q123.55 13.51 123.10 13.51L123.10 13.51L123.10 13.51Q122.09 13.51 120.83 13.44L120.83 13.44L120.83 13.44Q119.56 13.37 119.25 13.37L119.25 13.37L119.25 13.37Q118.86 13.37 118.27 13.43L118.27 13.43L118.27 13.43Q117.68 13.50 117.35 13.50L117.35 13.50L117.35 13.50Q117.05 13.50 117.05 13.36L117.05 13.36L117.05 13.36Q117.05 13.23 117.05 13.19L117.05 13.19L117.05 13.19Q117.05 13.15 117.10 13.12L117.10 13.12L117.10 13.12Q117.14 13.09 117.19 13.08L117.19 13.08L117.19 13.08Q117.24 13.08 117.37 13.03L117.37 13.03L117.37 13.03Q117.50 12.99 117.66 12.92L117.66 12.92L117.66 12.92Q117.99 12.75 118.10 12.26L118.10 12.26L118.10 12.26Q118.20 11.77 118.20 10.21L118.20 10.21L118.20 8.47L118.20 8.47Q118.20 8.09 118.22 7.29L118.22 7.29L118.22 7.29Q118.24 6.50 118.24 6.05L118.24 6.05L118.24 6.05Q118.24 5.67 118.22 4.77L118.22 4.77L118.22 4.77Q118.20 4.37 117.87 4.14L117.87 4.14L117.87 4.14Q117.53 3.92 117.08 3.91L117.08 3.91L117.08 3.91Q116.86 3.91 116.86 3.65ZM132.31 3.70L132.31 3.70L132.31 3.70Q132.31 3.47 132.72 3.47L132.72 3.47L135.04 3.47L135.04 3.47Q135.37 3.47 135.79 3.45L135.79 3.45L135.79 3.45Q136.21 3.43 136.44 3.43L136.44 3.43L136.44 3.43Q137.70 3.43 138.60 4.07L138.60 4.07L138.60 4.07Q139.50 4.70 139.50 5.78L139.50 5.78L139.50 5.78Q139.50 6.50 139.22 7.03L139.22 7.03L139.22 7.03Q138.95 7.57 138.62 7.81L138.62 7.81L138.62 7.81Q138.29 8.05 138.02 8.22L138.02 8.22L138.02 8.22Q137.75 8.40 137.75 8.46L137.75 8.46L137.75 8.46Q137.75 8.62 138.92 10.27L138.92 10.27L138.92 10.27Q140.10 11.91 140.53 12.38L140.53 12.38L140.53 12.38Q141.06 13.03 141.82 13.03L141.82 13.03L141.82 13.03Q142.02 13.03 142.02 13.20L142.02 13.20L142.02 13.20Q142.02 13.41 141.85 13.48L141.85 13.48L141.85 13.48Q141.68 13.55 140.98 13.55L140.98 13.55L140.98 13.55Q140.32 13.55 139.78 13.23L139.78 13.23L139.78 13.23Q139.08 12.82 137.41 10.09L137.41 10.09L137.41 10.09Q137.31 9.94 137.27 9.87L137.27 9.87L137.27 9.87Q136.60 8.78 136.23 8.78L136.23 8.78L135.94 8.78L135.09 8.78L135.09 8.78Q134.92 8.78 134.88 8.92L134.88 8.92L134.88 8.92Q134.85 9.06 134.85 9.77L134.85 9.77L134.85 9.77Q134.85 10.44 134.85 10.88L134.85 10.88L134.85 10.88Q134.85 11.31 134.86 11.43L134.86 11.43L134.86 11.43Q134.86 11.55 134.86 11.63L134.86 11.63L134.86 11.63Q134.86 11.70 134.86 11.75L134.86 11.75L134.86 11.75Q134.86 12.32 135.13 12.63L135.13 12.63L135.13 12.63Q135.39 12.95 135.72 13.00L135.72 13.00L135.72 13.00Q136.05 13.05 136.32 13.11L136.32 13.11L136.32 13.11Q136.58 13.17 136.58 13.31L136.58 13.31L136.58 13.31Q136.58 13.54 136.33 13.54L136.33 13.54L136.33 13.54Q136.32 13.54 135.37 13.49L135.37 13.49L135.37 13.49Q134.41 13.44 134.33 13.44L134.33 13.44L134.33 13.44Q133.92 13.44 133.36 13.47L133.36 13.47L133.36 13.47Q132.80 13.50 132.79 13.50L132.79 13.50L132.79 13.50Q132.50 13.50 132.50 13.27L132.50 13.27L132.50 13.27Q132.50 13.12 132.68 13.05L132.68 13.05L132.68 13.05Q132.86 12.99 133.08 12.96L133.08 12.96L133.08 12.96Q133.31 12.94 133.49 12.66L133.49 12.66L133.49 12.66Q133.67 12.38 133.67 11.86L133.67 11.86L133.67 11.86Q133.67 11.49 133.68 9.90L133.68 9.90L133.68 9.90Q133.69 8.30 133.69 7.45L133.69 7.45L133.69 7.45Q133.69 6.58 133.68 5.86L133.68 5.86L133.68 5.86Q133.67 5.14 133.67 5.08L133.67 5.08L133.67 5.08Q133.67 4.56 133.46 4.29L133.46 4.29L133.46 4.29Q133.25 4.02 132.99 3.98L132.99 3.98L132.99 3.98Q132.73 3.95 132.52 3.89L132.52 3.89L132.52 3.89Q132.31 3.84 132.31 3.70ZM134.85 5.54L134.85 5.94L134.85 5.94Q134.85 7.38 134.86 7.72L134.86 7.72L134.86 7.72Q134.88 8.06 134.96 8.12L134.96 8.12L134.96 8.12Q135.17 8.25 135.56 8.25L135.56 8.25L135.70 8.25L136.11 8.25L136.11 8.25Q137.30 8.25 137.81 7.70L137.81 7.70L137.81 7.70Q138.32 7.15 138.32 6.30L138.32 6.30L138.32 6.30Q138.32 5.43 137.64 4.72L137.64 4.72L137.64 4.72Q136.96 4.00 135.59 4.00L135.59 4.00L135.59 4.00Q135.07 4.00 134.96 4.28L134.96 4.28L134.96 4.28Q134.85 4.55 134.85 5.54L134.85 5.54Z"></path></g></svg>