<svg data-v-423bf9ae="" xmlns="http://www.w3.org/2000/svg" viewBox="0 0 301.83017254114577 60" class="font"><!----><!----><!----><g data-v-423bf9ae="" id="4d4534a3-e2e2-4d41-ba28-2af81b3fa525" fill="black" transform="matrix(4.946413803291662,0,0,4.946413803291662,-0.6430343680822546,-19.587798372888535)"><path d="M6.68 8.79L7.49 4.98L7.49 4.98Q6.92 5.29 6.27 6.14L6.27 6.14L6.27 6.14Q5.63 6.99 4.97 8.30L4.97 8.30L4.97 8.30Q5.47 8.40 5.90 8.53L5.90 8.53L5.90 8.53Q6.33 8.65 6.68 8.79L6.68 8.79ZM8.58 3.99L8.58 3.99L8.58 3.99Q8.88 3.99 9.17 4.04L9.17 4.04L9.17 4.04Q9.46 4.09 9.69 4.19L9.69 4.19L7.49 14.49L5.47 14.49L6.55 9.41L6.55 9.41Q6.06 9.18 5.63 9.07L5.63 9.07L5.63 9.07Q5.19 8.95 4.68 8.90L4.68 8.90L4.68 8.90Q3.88 10.64 3.37 12.43L3.37 12.43L3.37 12.43Q2.86 14.22 2.86 15.30L2.86 15.30L2.86 15.30Q2.86 15.55 2.91 15.74L2.91 15.74L2.91 15.74Q2.95 15.93 3.05 16.09L3.05 16.09L3.05 16.09Q1.99 16.09 1.58 15.72L1.58 15.72L1.58 15.72Q1.18 15.36 1.18 14.60L1.18 14.60L1.18 14.60Q1.18 13.66 1.74 12.10L1.74 12.10L1.74 12.10Q2.31 10.53 3.23 8.90L3.23 8.90L3.23 8.90Q2.52 8.95 2.12 9.13L2.12 9.13L2.12 9.13Q1.72 9.31 1.60 9.63L1.60 9.63L1.60 9.63Q1.65 9.63 1.72 9.78L1.72 9.78L1.72 9.78Q1.78 9.93 1.78 10.07L1.78 10.07L1.78 10.07Q1.78 10.30 1.55 10.46L1.55 10.46L1.55 10.46Q1.33 10.61 0.99 10.61L0.99 10.61L0.99 10.61Q0.60 10.61 0.36 10.39L0.36 10.39L0.36 10.39Q0.13 10.18 0.13 9.80L0.13 9.80L0.13 9.80Q0.13 9.07 0.95 8.57L0.95 8.57L0.95 8.57Q1.76 8.08 2.98 8.08L2.98 8.08L2.98 8.08Q3.12 8.08 3.30 8.09L3.30 8.09L3.30 8.09Q3.49 8.09 3.71 8.12L3.71 8.12L3.71 8.12Q4.94 6.17 6.22 5.08L6.22 5.08L6.22 5.08Q7.49 3.99 8.58 3.99ZM11.75 7.78L11.75 7.78L11.75 7.78Q12.31 6.52 13.05 5.86L13.05 5.86L13.05 5.86Q13.79 5.19 14.66 5.19L14.66 5.19L14.66 5.19Q14.85 5.19 15.04 5.22L15.04 5.22L15.04 5.22Q15.22 5.25 15.39 5.31L15.39 5.31L15.39 5.31Q14.49 5.85 13.71 7.97L13.71 7.97L13.71 7.97Q12.94 10.08 12.94 11.82L12.94 11.82L12.94 11.82Q12.94 12.08 12.94 12.20L12.94 12.20L12.94 12.20Q12.95 12.32 12.96 12.42L12.96 12.42L12.96 12.42Q13.22 12.35 13.43 12.32L13.43 12.32L13.43 12.32Q13.65 12.29 13.83 12.29L13.83 12.29L13.83 12.29Q14.15 12.29 14.43 12.38L14.43 12.38L14.43 12.38Q14.70 12.47 14.95 12.67L14.95 12.67L14.95 12.67Q15.68 11.75 16.18 10.15L16.18 10.15L16.18 10.15Q16.67 8.55 16.67 7.08L16.67 7.08L16.67 7.08Q16.67 5.68 16.27 5.16L16.27 5.16L16.27 5.16Q15.86 4.63 14.88 4.63L14.88 4.63L14.88 4.63Q13.16 4.63 12.01 5.65L12.01 5.65L12.01 5.65Q10.85 6.66 10.85 8.23L10.85 8.23L10.85 8.23Q10.85 8.43 10.87 8.57L10.87 8.57L10.87 8.57Q10.89 8.72 10.96 8.88L10.96 8.88L10.96 8.88Q10.98 8.93 10.98 8.95L10.98 8.95L10.98 8.95Q10.99 8.97 10.99 8.99L10.99 8.99L10.99 8.99Q10.28 8.99 9.93 8.70L9.93 8.70L9.93 8.70Q9.58 8.41 9.58 7.81L9.58 7.81L9.58 7.81Q9.58 7.03 10.13 6.27L10.13 6.27L10.13 6.27Q10.68 5.50 11.66 4.93L11.66 4.93L11.66 4.93Q12.45 4.48 13.36 4.23L13.36 4.23L13.36 4.23Q14.28 3.99 15.22 3.99L15.22 3.99L15.22 3.99Q16.87 3.99 17.70 4.89L17.70 4.89L17.70 4.89Q18.54 5.80 18.54 7.57L18.54 7.57L18.54 7.57Q18.54 9.37 17.81 11.11L17.81 11.11L17.81 11.11Q17.08 12.85 15.86 13.76L15.86 13.76L15.86 13.76Q16.34 14.42 16.73 14.66L16.73 14.66L16.73 14.66Q17.12 14.90 17.61 14.90L17.61 14.90L17.61 14.90Q17.65 14.90 17.70 14.89L17.70 14.89L17.70 14.89Q17.75 14.88 17.92 14.87L17.92 14.87L17.92 14.87Q17.68 15.50 17.35 15.79L17.35 15.79L17.35 15.79Q17.01 16.07 16.48 16.07L16.48 16.07L16.48 16.07Q15.81 16.07 15.39 15.72L15.39 15.72L15.39 15.72Q14.98 15.37 14.67 14.38L14.67 14.38L14.67 14.38Q14.36 14.48 14.04 14.53L14.04 14.53L14.04 14.53Q13.72 14.57 13.37 14.57L13.37 14.57L13.37 14.57Q12.14 14.57 11.50 13.86L11.50 13.86L11.50 13.86Q10.86 13.15 10.86 11.76L10.86 11.76L10.86 11.76Q10.86 10.86 11.10 9.78L11.10 9.78L11.10 9.78Q11.34 8.69 11.75 7.78ZM13.48 12.81L13.48 12.81L13.48 12.81Q13.38 12.81 13.29 12.82L13.29 12.82L13.29 12.82Q13.19 12.84 13.08 12.87L13.08 12.87L13.08 12.87Q13.17 13.16 13.34 13.30L13.34 13.30L13.34 13.30Q13.51 13.44 13.75 13.44L13.75 13.44L13.75 13.44Q13.89 13.44 14.03 13.40L14.03 13.40L14.03 13.40Q14.17 13.36 14.28 13.29L14.28 13.29L14.28 13.29Q14.14 13.05 13.94 12.93L13.94 12.93L13.94 12.93Q13.75 12.81 13.48 12.81ZM20.52 4.97L20.52 4.97L20.52 4.97Q21.24 4.51 22.06 4.25L22.06 4.25L22.06 4.25Q22.88 3.99 23.66 3.99L23.66 3.99L23.66 3.99Q23.76 3.99 23.88 4.00L23.88 4.00L23.88 4.00Q24.00 4.00 24.22 4.02L24.22 4.02L21.99 14.49L19.98 14.49L22.01 4.98L22.01 4.98Q21.06 5.38 20.55 6.16L20.55 6.16L20.55 6.16Q20.05 6.94 20.05 8.04L20.05 8.04L20.05 8.04Q20.05 8.30 20.08 8.50L20.08 8.50L20.08 8.50Q20.12 8.69 20.20 8.88L20.20 8.88L20.20 8.88Q20.23 8.93 20.24 8.95L20.24 8.95L20.24 8.95Q20.24 8.97 20.24 8.99L20.24 8.99L20.24 8.99Q19.46 8.99 19.10 8.66L19.10 8.66L19.10 8.66Q18.75 8.33 18.75 7.63L18.75 7.63L18.75 7.63Q18.75 6.93 19.21 6.23L19.21 6.23L19.21 6.23Q19.68 5.53 20.52 4.97ZM28.39 9.13L27.24 14.49L25.23 14.49L27.13 5.59L29.20 5.31L28.55 8.41L28.63 8.41L28.63 8.41Q29.41 8.41 30.03 7.70L30.03 7.70L30.03 7.70Q30.65 6.99 30.65 6.15L30.65 6.15L30.65 6.15Q30.65 5.45 30.16 5.04L30.16 5.04L30.16 5.04Q29.68 4.63 28.80 4.63L28.80 4.63L28.80 4.63Q27.33 4.63 26.31 5.57L26.31 5.57L26.31 5.57Q25.30 6.51 25.30 8.04L25.30 8.04L25.30 8.04Q25.30 8.30 25.33 8.50L25.33 8.50L25.33 8.50Q25.37 8.69 25.45 8.88L25.45 8.88L25.45 8.88Q25.48 8.93 25.49 8.95L25.49 8.95L25.49 8.95Q25.49 8.97 25.49 8.99L25.49 8.99L25.49 8.99Q24.74 8.99 24.37 8.67L24.37 8.67L24.37 8.67Q24.00 8.34 24.00 7.70L24.00 7.70L24.00 7.70Q24.00 6.94 24.48 6.22L24.48 6.22L24.48 6.22Q24.96 5.49 25.82 4.94L25.82 4.94L25.82 4.94Q26.52 4.48 27.36 4.23L27.36 4.23L27.36 4.23Q28.21 3.99 29.08 3.99L29.08 3.99L29.08 3.99Q30.45 3.99 31.25 4.61L31.25 4.61L31.25 4.61Q32.06 5.22 32.06 6.22L32.06 6.22L32.06 6.22Q32.06 6.87 31.68 7.48L31.68 7.48L31.68 7.48Q31.30 8.08 30.66 8.44L30.66 8.44L30.66 8.44Q31.46 8.60 31.88 9.19L31.88 9.19L31.88 9.19Q32.31 9.79 32.31 10.70L32.31 10.70L32.31 10.70Q32.31 11.35 32.12 12.08L32.12 12.08L32.12 12.08Q31.92 12.81 31.57 13.37L31.57 13.37L31.57 13.37Q31.15 14.04 30.56 14.38L30.56 14.38L30.56 14.38Q29.97 14.73 29.25 14.73L29.25 14.73L29.25 14.73Q28.59 14.73 28.22 14.46L28.22 14.46L28.22 14.46Q27.86 14.20 27.86 13.69L27.86 13.69L27.86 13.69Q27.86 13.52 27.90 13.32L27.90 13.32L27.90 13.32Q27.94 13.12 28.04 12.88L28.04 12.88L28.04 12.88Q28.31 13.15 28.52 13.27L28.52 13.27L28.52 13.27Q28.74 13.38 28.98 13.38L28.98 13.38L28.98 13.38Q29.61 13.38 29.99 12.66L29.99 12.66L29.99 12.66Q30.37 11.93 30.37 10.86L30.37 10.86L30.37 10.86Q30.37 9.98 30.03 9.53L30.03 9.53L30.03 9.53Q29.69 9.09 29.04 9.09L29.04 9.09L29.04 9.09Q28.94 9.09 28.75 9.10L28.75 9.10L28.75 9.10Q28.56 9.11 28.39 9.13L28.39 9.13ZM39.28 13.93L39.17 14.49L37.16 14.49L39.06 5.59L41.13 5.31L39.45 13.16L39.45 13.16Q39.65 13.30 39.84 13.37L39.84 13.37L39.84 13.37Q40.04 13.44 40.25 13.44L40.25 13.44L40.25 13.44Q41.38 13.44 42.16 11.57L42.16 11.57L42.16 11.57Q42.94 9.70 42.94 7.28L42.94 7.28L42.94 7.28Q42.94 5.96 42.42 5.30L42.42 5.30L42.42 5.30Q41.90 4.63 40.89 4.63L40.89 4.63L40.89 4.63Q39.26 4.63 38.24 5.56L38.24 5.56L38.24 5.56Q37.23 6.50 37.23 8.04L37.23 8.04L37.23 8.04Q37.23 8.30 37.26 8.50L37.26 8.50L37.26 8.50Q37.30 8.69 37.38 8.88L37.38 8.88L37.38 8.88Q37.41 8.93 37.42 8.95L37.42 8.95L37.42 8.95Q37.42 8.97 37.42 8.99L37.42 8.99L37.42 8.99Q36.67 8.99 36.30 8.67L36.30 8.67L36.30 8.67Q35.92 8.34 35.92 7.69L35.92 7.69L35.92 7.69Q35.92 6.92 36.42 6.18L36.42 6.18L36.42 6.18Q36.92 5.45 37.79 4.90L37.79 4.90L37.79 4.90Q38.50 4.47 39.36 4.23L39.36 4.23L39.36 4.23Q40.22 3.99 41.13 3.99L41.13 3.99L41.13 3.99Q42.92 3.99 43.90 5.06L43.90 5.06L43.90 5.06Q44.87 6.13 44.87 8.02L44.87 8.02L44.87 8.02Q44.87 9.04 44.63 10.09L44.63 10.09L44.63 10.09Q44.39 11.14 43.96 12.05L43.96 12.05L43.96 12.05Q43.39 13.29 42.60 13.98L42.60 13.98L42.60 13.98Q41.82 14.67 40.99 14.67L40.99 14.67L40.99 14.67Q40.57 14.67 40.15 14.48L40.15 14.48L40.15 14.48Q39.72 14.29 39.28 13.93L39.28 13.93ZM47.66 11.98L47.66 11.98L47.66 11.98Q47.66 12.66 48.00 13.03L48.00 13.03L48.00 13.03Q48.34 13.40 48.99 13.40L48.99 13.40L48.99 13.40Q49.73 13.40 50.48 12.99L50.48 12.99L50.48 12.99Q51.24 12.59 51.58 11.97L51.58 11.97L51.90 12.11L51.90 12.11Q51.38 13.30 50.24 14.02L50.24 14.02L50.24 14.02Q49.10 14.74 47.80 14.74L47.80 14.74L47.80 14.74Q46.59 14.74 45.91 14.07L45.91 14.07L45.91 14.07Q45.22 13.40 45.22 12.28L45.22 12.28L45.22 12.28Q45.22 11.06 45.96 9.99L45.96 9.99L45.96 9.99Q46.70 8.92 47.81 8.65L47.81 8.65L47.81 8.65Q47.39 8.36 47.17 7.92L47.17 7.92L47.17 7.92Q46.96 7.49 46.96 6.97L46.96 6.97L46.96 6.97Q46.96 5.80 47.86 4.88L47.86 4.88L47.86 4.88Q48.76 3.96 50.02 3.96L50.02 3.96L50.02 3.96Q50.92 3.96 51.47 4.44L51.47 4.44L51.47 4.44Q52.02 4.91 52.02 5.71L52.02 5.71L52.02 5.71Q52.02 6.33 51.72 6.75L51.72 6.75L51.72 6.75Q51.42 7.17 50.99 7.17L50.99 7.17L50.99 7.17Q50.79 7.17 50.63 7.07L50.63 7.07L50.63 7.07Q50.47 6.97 50.33 6.79L50.33 6.79L50.33 6.79Q50.58 6.71 50.76 6.34L50.76 6.34L50.76 6.34Q50.95 5.96 50.95 5.57L50.95 5.57L50.95 5.57Q50.95 5.21 50.74 5.00L50.74 5.00L50.74 5.00Q50.53 4.79 50.18 4.79L50.18 4.79L50.18 4.79Q49.59 4.79 49.17 5.38L49.17 5.38L49.17 5.38Q48.75 5.98 48.75 6.76L48.75 6.76L48.75 6.76Q48.75 7.46 49.12 7.96L49.12 7.96L49.12 7.96Q49.49 8.46 50.16 8.64L50.16 8.64L50.16 8.64Q49.13 8.88 48.39 9.89L48.39 9.89L48.39 9.89Q47.66 10.91 47.66 11.98ZM53.41 4.97L53.41 4.97L53.41 4.97Q54.12 4.51 54.94 4.25L54.94 4.25L54.94 4.25Q55.76 3.99 56.55 3.99L56.55 3.99L56.55 3.99Q56.64 3.99 56.76 4.00L56.76 4.00L56.76 4.00Q56.88 4.00 57.11 4.02L57.11 4.02L57.23 12.63L60.17 4.06L61.15 4.06L57.26 14.49L55.13 14.49L55.13 4.93L55.13 4.93Q54.04 5.26 53.49 6.05L53.49 6.05L53.49 6.05Q52.93 6.83 52.93 8.04L52.93 8.04L52.93 8.04Q52.93 8.30 52.97 8.50L52.97 8.50L52.97 8.50Q53.00 8.69 53.09 8.88L53.09 8.88L53.09 8.88Q53.12 8.93 53.12 8.95L53.12 8.95L53.12 8.95Q53.13 8.97 53.13 8.99L53.13 8.99L53.13 8.99Q52.35 8.99 51.99 8.66L51.99 8.66L51.99 8.66Q51.63 8.33 51.63 7.63L51.63 7.63L51.63 7.63Q51.63 6.93 52.10 6.23L52.10 6.23L52.10 6.23Q52.57 5.53 53.41 4.97Z"></path></g><!----><!----></svg>